<?xml version="1.0" standalone="no"?>
<!DOCTYPE svg PUBLIC "-//W3C//DTD SVG 20010904//EN"
 "http://www.w3.org/TR/2001/REC-SVG-20010904/DTD/svg10.dtd">
<svg version="1.0" xmlns="http://www.w3.org/2000/svg"
 width="1504.000000pt" height="1504.000000pt" viewBox="0 0 1504.000000 1504.000000"
 preserveAspectRatio="xMidYMid meet">
<metadata>
Created by potrace 1.14, written by Peter Selinger 2001-2017
</metadata>
<g transform="translate(0.000000,1504.000000) scale(0.100000,-0.100000)"
fill="#000000" stroke="none">
<path d="M7067 14824 c-1 -1 -54 -5 -117 -9 -149 -8 -186 -11 -350 -30 -14 -2
-52 -6 -85 -10 -33 -3 -67 -8 -75 -10 -8 -2 -35 -7 -60 -10 -25 -3 -56 -8 -70
-10 -31 -6 -87 -15 -120 -20 -29 -5 -55 -10 -160 -32 -41 -8 -84 -16 -95 -18
-11 -2 -48 -10 -82 -18 -35 -8 -63 -13 -63 -11 0 3 -8 0 -17 -5 -10 -5 -31
-11 -48 -14 -63 -12 -89 -18 -99 -25 -6 -3 -17 -7 -26 -8 -8 -1 -35 -7 -60
-13 -25 -6 -55 -14 -67 -16 -12 -3 -90 -26 -175 -51 -84 -25 -160 -47 -168
-49 -35 -8 -342 -119 -468 -169 -246 -96 -538 -233 -757 -354 -38 -22 -86 -48
-105 -58 -19 -10 -37 -22 -40 -25 -3 -3 -21 -14 -40 -24 -19 -10 -46 -26 -60
-35 -14 -10 -79 -53 -145 -96 -170 -110 -460 -325 -551 -409 -65 -59 -151
-128 -258 -210 -72 -54 -135 -103 -142 -109 -6 -6 -40 -36 -75 -66 -158 -137
-356 -336 -534 -535 -44 -50 -82 -92 -85 -95 -47 -43 -345 -422 -445 -565 -81
-117 -175 -256 -175 -260 0 -2 -15 -26 -32 -52 -43 -62 -67 -104 -74 -125 -4
-10 -10 -18 -14 -18 -5 0 -12 -10 -16 -22 -3 -13 -13 -31 -22 -40 -8 -10 -11
-18 -6 -18 5 0 4 -4 -2 -8 -10 -6 -30 -40 -93 -157 -9 -16 -20 -33 -24 -36 -5
-3 -9 -9 -8 -12 0 -4 -46 -100 -101 -214 -56 -114 -101 -213 -101 -220 0 -7
-3 -13 -7 -13 -3 0 -12 -17 -20 -37 -7 -21 -20 -54 -28 -73 -9 -19 -16 -37
-17 -40 -1 -3 -8 -18 -15 -35 -7 -16 -14 -34 -16 -40 -1 -5 -6 -21 -12 -35 -5
-14 -11 -29 -12 -35 -1 -5 -5 -14 -10 -20 -6 -9 -28 -68 -37 -100 -1 -5 -25
-75 -53 -154 -42 -119 -132 -412 -145 -471 -2 -8 -17 -72 -34 -141 -17 -69
-33 -134 -35 -145 -3 -10 -14 -62 -25 -114 -19 -89 -73 -396 -86 -485 -3 -23
-7 -50 -9 -60 -2 -11 -7 -49 -11 -85 -3 -36 -8 -72 -10 -80 -2 -8 -7 -46 -10
-85 -3 -38 -8 -83 -10 -100 -3 -16 -7 -65 -10 -108 -3 -43 -7 -97 -10 -120
-25 -230 -25 -682 0 -939 10 -101 16 -154 20 -178 2 -14 6 -47 10 -75 7 -63
31 -207 50 -305 8 -41 16 -86 19 -100 34 -199 163 -687 268 -1010 27 -85 51
-159 53 -165 1 -5 9 -27 19 -47 9 -21 16 -41 16 -46 0 -5 8 -27 17 -48 9 -22
18 -43 19 -49 1 -5 9 -26 18 -46 8 -20 12 -39 9 -43 -4 -3 -2 -6 3 -6 8 0 33
-52 39 -80 1 -3 9 -23 19 -45 10 -22 19 -44 20 -50 1 -5 8 -20 14 -32 7 -13 9
-23 5 -23 -4 0 -2 -4 6 -9 8 -5 16 -15 17 -23 1 -7 19 -49 40 -93 21 -44 38
-82 39 -85 1 -3 21 -43 45 -90 24 -47 55 -107 69 -135 14 -27 29 -52 33 -53 5
-2 8 -8 8 -14 0 -5 9 -22 20 -38 11 -15 17 -30 13 -34 -3 -3 -2 -6 4 -6 5 0
18 -18 28 -40 10 -22 22 -40 27 -40 4 0 8 -5 8 -11 0 -6 12 -30 28 -53 15 -22
33 -53 41 -69 8 -15 18 -27 23 -27 4 0 8 -5 8 -10 0 -9 73 -120 107 -165 5 -5
46 -62 93 -125 46 -63 87 -117 90 -120 29 -27 141 -167 168 -210 62 -97 164
-253 173 -264 103 -132 470 -508 679 -697 58 -51 107 -96 110 -99 13 -13 211
-180 260 -220 30 -24 60 -48 65 -54 6 -6 17 -15 26 -21 9 -5 97 -71 196 -145
100 -74 210 -154 245 -178 124 -85 230 -152 239 -152 5 0 9 -3 9 -8 0 -4 21
-18 47 -32 27 -13 50 -27 53 -30 12 -15 301 -174 455 -251 220 -110 620 -284
700 -304 6 -1 17 -5 25 -8 21 -9 242 -82 325 -107 81 -25 434 -115 485 -124
19 -3 68 -13 109 -21 75 -15 124 -24 171 -30 14 -2 25 -4 25 -5 0 -3 26 -7 85
-14 25 -3 61 -8 80 -11 77 -11 176 -23 190 -23 47 -1 70 -13 128 -66 29 -28
40 -31 100 -32 37 -1 72 -2 77 -4 6 -1 12 -1 15 0 14 7 147 5 162 -2 9 -4 19
-5 21 0 6 9 238 9 254 -1 6 -4 14 -4 17 1 6 9 157 9 173 -1 6 -4 14 -4 16 0 4
7 267 9 275 3 3 -3 41 -3 45 0 7 7 139 5 143 -2 3 -5 11 -5 17 -1 16 10 137
11 143 1 3 -5 11 -5 17 -1 16 10 137 11 143 1 3 -5 11 -5 17 -1 16 11 198 11
219 1 10 -5 19 -4 23 2 4 6 10 8 15 5 5 -3 16 10 24 29 25 59 52 70 190 72 66
1 121 3 121 4 0 1 18 3 40 5 42 3 119 13 170 22 17 3 41 7 55 8 14 2 25 4 25
5 0 1 7 3 15 5 8 1 42 8 75 14 33 7 67 15 75 18 8 3 20 7 25 8 91 22 392 118
450 144 11 5 45 18 75 29 153 56 522 206 680 278 88 40 517 254 575 287 37 20
315 182 360 210 11 7 22 14 25 17 3 3 43 30 90 59 47 30 103 67 125 83 112 80
352 258 365 270 8 8 38 32 65 53 28 21 57 46 65 54 8 9 40 36 70 61 177 145
461 435 662 675 65 78 161 202 233 302 93 130 115 158 142 188 59 65 244 300
278 353 6 9 18 25 28 36 9 11 17 23 17 27 0 4 6 14 14 21 19 20 133 195 210
323 36 61 69 115 73 120 8 10 27 44 100 185 19 36 38 72 43 80 16 26 89 185
90 195 1 6 8 17 15 25 7 8 14 18 14 23 0 18 26 77 33 77 4 0 7 3 6 8 -1 7 4
21 30 82 8 19 16 37 16 40 2 6 48 128 67 175 7 17 13 35 15 40 4 13 104 306
111 325 3 8 7 22 8 30 1 8 12 49 25 90 24 81 68 250 76 290 2 14 7 32 10 40 3
8 8 26 10 40 3 13 12 56 20 95 9 38 18 81 20 95 3 14 9 43 14 65 14 61 51 275
56 320 2 22 6 51 9 65 3 14 7 46 10 71 3 25 7 54 9 65 2 10 7 48 10 84 4 36 9
76 11 90 2 14 7 61 11 105 3 44 8 88 9 97 23 119 22 822 0 937 -2 9 -6 59 -10
111 -8 100 -8 100 -18 170 -4 25 -9 65 -12 90 -3 25 -7 56 -9 70 -2 14 -7 46
-10 71 -4 25 -9 57 -11 70 -2 13 -6 40 -9 59 -3 19 -8 49 -11 65 -3 17 -13 68
-21 115 -9 47 -18 96 -20 110 -2 14 -8 43 -14 65 -5 22 -21 94 -35 160 -15 66
-40 172 -57 235 -17 63 -31 120 -32 125 -2 6 -9 30 -16 55 -8 25 -14 47 -15
50 -1 3 -7 25 -14 50 -7 25 -13 45 -12 45 1 0 -15 47 -35 105 -19 58 -37 110
-38 115 -2 6 -6 17 -9 25 -3 8 -13 35 -21 60 -8 25 -31 88 -51 140 -20 52 -37
101 -38 108 0 6 -4 12 -9 12 -4 0 -8 9 -8 19 0 11 -4 22 -9 25 -5 3 -12 18
-16 33 -3 16 -20 56 -36 91 -16 35 -29 65 -29 67 0 2 -16 38 -35 79 -19 42
-35 80 -35 84 0 4 -6 14 -12 21 -7 6 -13 16 -13 20 0 12 -59 125 -68 132 -5 3
-8 9 -8 13 2 11 -81 171 -90 174 -5 2 -9 12 -9 23 0 10 -4 19 -9 19 -5 0 -13
10 -17 23 -4 12 -22 46 -40 75 -19 29 -34 57 -34 62 0 6 -4 10 -10 10 -5 0
-10 4 -10 9 0 16 -243 396 -292 456 -4 5 -45 60 -90 120 -76 103 -266 338
-319 396 -13 14 -51 56 -84 94 -77 89 -384 396 -498 500 -49 44 -142 132 -206
195 -133 131 -229 217 -351 314 -47 37 -94 75 -105 84 -36 29 -219 158 -252
177 -18 11 -33 23 -33 27 0 4 -4 8 -9 8 -9 0 -109 58 -121 70 -3 3 -18 12 -35
20 -16 8 -55 29 -85 46 -113 64 -211 114 -225 114 -7 0 -15 4 -17 8 -9 22
-267 166 -533 297 -178 87 -492 225 -514 225 -5 0 -22 6 -38 14 -42 21 -137
56 -151 56 -7 0 -20 4 -30 9 -22 13 -217 77 -262 87 -44 10 -40 9 -73 22 -15
7 -40 14 -55 17 -15 3 -67 16 -117 29 -49 13 -93 22 -97 19 -5 -2 -8 0 -8 4 0
5 -8 9 -18 10 -10 1 -45 8 -78 17 -32 8 -75 17 -94 20 -19 3 -50 9 -68 15 -18
5 -35 10 -37 10 -3 0 -20 3 -38 6 -17 3 -45 8 -62 10 -16 2 -30 4 -30 5 0 2
-64 14 -148 26 -15 2 -39 6 -55 9 -15 3 -45 7 -67 10 -92 11 -141 18 -159 21
-11 2 -44 6 -75 9 -31 3 -78 8 -106 11 -27 3 -77 8 -110 10 -33 3 -80 7 -105
8 -191 15 -763 30 -773 20z"/>
</g>
</svg>
